# xmcd CD database file
#
# Track frame offsets:
#	150
#	14100
#	29372
#	43805
#	58435
#	74590
#	95922
#	109622
#	125282
#	140510
#	162057
#	180775
#	197072
#	209282
#
# Disc length: 3022 seconds
#
# Revision: 1
# Processed by: cddbd v1.5.2PL0 Copyright (c) Steve Scherf et al.
# Submitted via: CDex 1.70beta2
#
DISCID=d00bcc0e
DTITLE=Pearl Street Jazz Band - Streamliner
DYEAR=1900
DGENRE=Jazz
TTITLE0=Jump Jive N Wail
TTITLE1=Do It Again
TTITLE2=Second Line
TTITLE3=What a Little Moonlight Can Do
TTITLE4=Summertime
TTITLE5=Save the Bones for Henry Jones
TTITLE6=My Baby Just Cares for Me
TTITLE7=South Rampart Street Parade
TTITLE8=Go Daddy-O
TTITLE9=Caravan
TTITLE10=Stardust
TTITLE11=Rose of Washington Square
TTITLE12=Jumpin at the Woodside
TTITLE13=Panama
EXTD=
EXTT0=
EXTT1=
EXTT2=
EXTT3=
EXTT4=
EXTT5=
EXTT6=
EXTT7=
EXTT8=
EXTT9=
EXTT10=
EXTT11=
EXTT12=
EXTT13=
PLAYORDER=
